{
  "accessors": [
    {
      "bufferView": 2,
      "componentType": 5126,
      "count": 394,
      "max": [
        82.60823059082031,
        245.167724609375,
        99.4893798828125
      ],
      "min": [
        -90.36368560791016,
        167.10244750976563,
        56.67346954345703
      ],
      "type": "VEC3"
    },
    {
      "bufferView": 2,
      "byteOffset": 4728,
      "componentType": 5126,
      "count": 394,
      "max": [
        0.999297559261322,
        0.9866356253623962,
        0.9623331427574158
      ],
      "min": [
        -0.9994516968727112,
        -0.983034610748291,
        -0.9623335003852844
      ],
      "type": "VEC3"
    },
    {
      "bufferView": 1,
      "componentType": 5126,
      "count": 394,
      "max": [
        0.65625,
        0.9923526048660278
      ],
      "min": [
        0.0,
        0.0
      ],
      "type": "VEC2"
    },
    {
      "bufferView": 1,
      "byteOffset": 3152,
      "componentType": 5126,
      "count": 394,
      "max": [
        1.0,
        1.0
      ],
      "min": [
        0.0,
        0.0
      ],
      "type": "VEC2"
    },
    {
      "bufferView": 0,
      "componentType": 5125,
      "count": 1188,
      "type": "SCALAR"
    },
    {
      "bufferView": 2,
      "byteOffset": 9456,
      "componentType": 5126,
      "count": 799,
      "max": [
        118.61344909667969,
        689.505126953125,
        202.87367248535156
      ],
      "min": [
        -118.61385345458984,
        141.17236328125,
        -116.06877899169922
      ],
      "type": "VEC3"
    },
    {
      "bufferView": 2,
      "byteOffset": 19044,
      "componentType": 5126,
      "count": 799,
      "max": [
        0.9963563680648804,
        0.9990483522415161,
        0.9999361038208008
      ],
      "min": [
        -0.9963563680648804,
        -0.9499492645263672,
        -0.9989203810691833
      ],
      "type": "VEC3"
    },
    {
      "bufferView": 1,
      "byteOffset": 6304,
      "componentType": 5126,
      "count": 799,
      "max": [
        0.0,
        0.0
      ],
      "min": [
        0.0,
        0.0
      ],
      "type": "VEC2"
    },
    {
      "bufferView": 1,
      "byteOffset": 12696,
      "componentType": 5126,
      "count": 799,
      "max": [
        1.0,
        1.0
      ],
      "min": [
        -6.713565140487455e-16,
        0.0
      ],
      "type": "VEC2"
    },
    {
      "bufferView": 0,
      "byteOffset": 4752,
      "componentType": 5125,
      "count": 2844,
      "type": "SCALAR"
    },
    {
      "bufferView": 2,
      "byteOffset": 28632,
      "componentType": 5126,
      "count": 154,
      "max": [
        81.4556884765625,
        240.89028930664063,
        82.18962860107422
      ],
      "min": [
        78.5257797241211,
        167.84188842773438,
        75.65619659423828
      ],
      "type": "VEC3"
    },
    {
      "bufferView": 2,
      "byteOffset": 30480,
      "componentType": 5126,
      "count": 154,
      "max": [
        0.17196254432201385,
        0.9999499917030334,
        0.9510573148727417
      ],
      "min": [
        -0.12444323301315308,
        -0.8231297135353088,
        -0.9510579705238342
      ],
      "type": "VEC3"
    },
    {
      "bufferView": 1,
      "byteOffset": 19088,
      "componentType": 5126,
      "count": 154,
      "max": [
        0.6250001192092896,
        0.600164532661438
      ],
      "min": [
        0.375,
        0.43981489539146423
      ],
      "type": "VEC2"
    },
    {
      "bufferView": 1,
      "byteOffset": 20320,
      "componentType": 5126,
      "count": 154,
      "max": [
        0.0,
        0.0
      ],
      "min": [
        0.0,
        0.0
      ],
      "type": "VEC2"
    },
    {
      "bufferView": 0,
      "byteOffset": 16128,
      "componentType": 5125,
      "count": 252,
      "type": "SCALAR"
    },
    {
      "bufferView": 2,
      "byteOffset": 32328,
      "componentType": 5126,
      "count": 20,
      "max": [
        67.83924865722656,
        430.888671875,
        148.001708984375
      ],
      "min": [
        -67.83944702148438,
        411.12255859375,
        135.6642303466797
      ],
      "type": "VEC3"
    },
    {
      "bufferView": 2,
      "byteOffset": 32568,
      "componentType": 5126,
      "count": 20,
      "max": [
        0.6097603440284729,
        0.17578299343585968,
        0.9761129021644592
      ],
      "min": [
        -0.6097591519355774,
        -0.46471214294433594,
        0.7903594374656677
      ],
      "type": "VEC3"
    },
    {
      "bufferView": 1,
      "byteOffset": 21552,
      "componentType": 5126,
      "count": 20,
      "max": [
        0.0,
        0.0
      ],
      "min": [
        0.0,
        0.0
      ],
      "type": "VEC2"
    },
    {
      "bufferView": 1,
      "byteOffset": 21712,
      "componentType": 5126,
      "count": 20,
      "max": [
        0.9479999542236328,
        0.5011000037193298
      ],
      "min": [
        0.05199999734759331,
        0.48510000109672546
      ],
      "type": "VEC2"
    },
    {
      "bufferView": 0,
      "byteOffset": 17136,
      "componentType": 5125,
      "count": 48,
      "type": "SCALAR"
    }
  ],
  "asset": {
    "extras": {
      "author": "MickeySeamark (https://sketchfab.com/MickeySeamark)",
      "license": "CC-BY-4.0 (http://creativecommons.org/licenses/by/4.0/)",
      "source": "https://sketchfab.com/3d-models/batman-cowl-836a67eeebbc4eeba49b5a4b83034603",
      "title": "Batman Cowl"
    },
    "generator": "Sketchfab-12.68.0",
    "version": "2.0"
  },
  "bufferViews": [
    {
      "buffer": 0,
      "byteLength": 17328,
      "name": "floatBufferViews",
      "target": 34963
    },
    {
      "buffer": 0,
      "byteLength": 21872,
      "byteOffset": 17328,
      "byteStride": 8,
      "name": "floatBufferViews",
      "target": 34962
    },
    {
      "buffer": 0,
      "byteLength": 32808,
      "byteOffset": 39200,
      "byteStride": 12,
      "name": "floatBufferViews",
      "target": 34962
    }
  ],
  "buffers": [
    {
      "byteLength": 72008,
      "uri": "scene.bin"
    }
  ],
  "materials": [
    {
      "doubleSided": true,
      "name": "blinn1",
      "pbrMetallicRoughness": {
        "baseColorFactor": [
          0.4107,
          0.4107,
          0.4107,
          1.0
        ],
        "metallicFactor": 0.0,
        "roughnessFactor": 0.9207483816249483
      }
    },
    {
      "doubleSided": true,
      "name": "lambert4",
      "pbrMetallicRoughness": {
        "baseColorFactor": [
          0.028568353476075985,
          0.028568353476075985,
          0.028568353476075985,
          1.0
        ],
        "metallicFactor": 0.5419229130940889,
        "roughnessFactor": 0.62357248568998
      }
    },
    {
      "doubleSided": true,
      "name": "lambert1",
      "pbrMetallicRoughness": {
        "baseColorFactor": [
          0.5,
          0.5,
          0.5,
          1.0
        ],
        "metallicFactor": 0.0,
        "roughnessFactor": 0.6
      }
    },
    {
      "emissiveFactor": [
        0.8196994197222408,
        0.8196994197222408,
        0.8196994197222408
      ],
      "name": "lambert3",
      "pbrMetallicRoughness": {
        "metallicFactor": 0.0,
        "roughnessFactor": 0.6
      }
    }
  ],
  "meshes": [
    {
      "name": "BatCowl_blinn1_0",
      "primitives": [
        {
          "attributes": {
            "NORMAL": 1,
            "POSITION": 0,
            "TEXCOORD_0": 2,
            "TEXCOORD_1": 3
          },
          "indices": 4,
          "material": 0,
          "mode": 4
        }
      ]
    },
    {
      "name": "BatCowl_lambert4_0",
      "primitives": [
        {
          "attributes": {
            "NORMAL": 6,
            "POSITION": 5,
            "TEXCOORD_0": 7,
            "TEXCOORD_1": 8
          },
          "indices": 9,
          "material": 1,
          "mode": 4
        }
      ]
    },
    {
      "name": "BatCowl_lambert1_0",
      "primitives": [
        {
          "attributes": {
            "NORMAL": 11,
            "POSITION": 10,
            "TEXCOORD_0": 12,
            "TEXCOORD_1": 13
          },
          "indices": 14,
          "material": 2,
          "mode": 4
        }
      ]
    },
    {
      "name": "BatCowl_lambert3_0",
      "primitives": [
        {
          "attributes": {
            "NORMAL": 16,
            "POSITION": 15,
            "TEXCOORD_0": 17,
            "TEXCOORD_1": 18
          },
          "indices": 19,
          "material": 3,
          "mode": 4
        }
      ]
    }
  ],
  "nodes": [
    {
      "children": [
        1
      ],
      "matrix": [
        1.0,
        0.0,
        0.0,
        0.0,
        0.0,
        2.220446049250313e-16,
        -1.0,
        0.0,
        0.0,
        1.0,
        2.220446049250313e-16,
        0.0,
        0.0,
        0.0,
        0.0,
        1.0
      ],
      "name": "Sketchfab_model"
    },
    {
      "children": [
        2
      ],
      "matrix": [
        1.0,
        0.0,
        0.0,
        0.0,
        0.0,
        0.0,
        1.0,
        0.0,
        0.0,
        -1.0,
        0.0,
        0.0,
        0.0,
        0.0,
        0.0,
        1.0
      ],
      "name": "3e8cb7f5e64a4c4596f1050a7ee3c7fe.fbx"
    },
    {
      "children": [
        3
      ],
      "name": "RootNode"
    },
    {
      "children": [
        4,
        5,
        6,
        7
      ],
      "matrix": [
        0.009999999776482582,
        0.0,
        0.0,
        0.0,
        0.0,
        0.009999999776482582,
        0.0,
        0.0,
        0.0,
        0.0,
        0.009999999776482582,
        0.0,
        0.0,
        0.0,
        0.0,
        1.0
      ],
      "name": "BatCowl"
    },
    {
      "mesh": 0,
      "name": "BatCowl_blinn1_0"
    },
    {
      "mesh": 1,
      "name": "BatCowl_lambert4_0"
    },
    {
      "mesh": 2,
      "name": "BatCowl_lambert1_0"
    },
    {
      "mesh": 3,
      "name": "BatCowl_lambert3_0"
    }
  ],
  "scene": 0,
  "scenes": [
    {
      "name": "Sketchfab_Scene",
      "nodes": [
        0
      ]
    }
  ]
}
